#!OML:ASF E:\Style4\Style4.ASF
:FULLY-SPECIFIED
:DEGREES
714
root 0.0506301 16.5808 0.205182 0.0411771 -4.35161 5.257
lowerback 10.5662 3.16743 -2.49877
upperback 6.84845 3.97072 -0.201587
thorax 1.06961 1.91265 0.812715
lowerneck 11.1808 -0.141975 -4.35702
upperneck -0.672373 -0.70851 1.21729
head -2.13017 -0.365767 1.18647
rclavicle 4.77083e-015 1.03368e-014
rhumerus -21.1971 22.7029 -54.4321
rradius 135.848
rwrist -75.637
rhand 59.2533 -6.77462
rfingers 7.12502
rthumb 74.4214 23.0222
lclavicle 4.77083e-015 1.03368e-014
lhumerus -11.1263 -17.8492 57.9592
lradius 139.041
lwrist 75.9319
lhand 37.5672 52.6368
lfingers 7.12502
lthumb 60.3497 66.0447
rfemur -24.9774 -0.851697 13.463
rtibia 58.9831
rfoot -30.2189 -20.7508
rtoes -15.4375
lfemur -21.2306 4.8148 -24.7259
ltibia 53.9864
lfoot -31.9852 11.7638
ltoes -14.5872
715
root 0.0459375 16.5812 0.204437 0.0646534 -4.24209 5.30952
lowerback 10.5881 3.28196 -2.56278
upperback 6.97993 4.11832 -0.147696
thorax 1.18299 1.98145 0.8925
lowerneck 11.4742 -0.204713 -4.62014
upperneck -1.07303 -0.833732 1.41356
head -2.31564 -0.428258 1.31111
rclavicle -1.96797e-014 7.95139e-015
rhumerus -21.9559 21.6762 -54.7919
rradius 136.082
rwrist -75.436
rhand 59.5148 -6.62434
rfingers 7.12502
rthumb 74.488 24.0818
lclavicle -1.96797e-014 7.95139e-015
lhumerus -11.6511 -16.6637 58.8205
lradius 139.298
lwrist 75.5828
lhand 38.4111 52.2555
lfingers 7.12502
lthumb 61.0655 64.8664
rfemur -25.0138 -0.948708 13.4232
rtibia 59.025
rfoot -30.1636 -20.8703
rtoes -15.6453
lfemur -21.2629 4.77943 -24.756
ltibia 53.9582
lfoot -31.9124 11.65
ltoes -14.3625
716
root 0.0419572 16.5814 0.202618 0.116909 -4.1031 5.44168
lowerback 10.5727 3.32981 -2.79141
upperback 7.09259 4.16535 -0.0850235
thorax 1.28866 1.99436 1.0842
lowerneck 11.6304 -0.228786 -4.8383
upperneck -1.29163 -0.901214 1.47605
head -2.41656 -0.459694 1.3785
rclavicle -4.6118e-014 7.95139e-016
rhumerus -22.4955 20.8976 -55.033
rradius 136.273
rwrist -75.4004
rhand 59.7296 -6.627
rfingers 7.12502
rthumb 74.5397 24.8313
lclavicle -4.6118e-014 7.95139e-016
lhumerus -12.2912 -15.3116 59.5243
lradius 139.485
lwrist 75.3433
lhand 39.7083 51.8872
lfingers 7.12502
lthumb 62.1529 63.1894
rfemur -25.0831 -1.07179 13.2876
rtibia 59.0771
rfoot -30.1927 -20.8905
rtoes -15.7346
lfemur -21.3453 4.70721 -24.884
ltibia 53.9513
lfoot -31.8563 11.5494
ltoes -14.1418
717
root 0.0389735 16.5807 0.201403 0.145404 -3.96437 5.46959
lowerback 10.566 3.36035 -2.85707
upperback 7.2419 4.20332 -0.0359308
thorax 1.43984 2.00712 1.17336
lowerneck 11.5976 -0.307001 -4.91458
upperneck -1.45421 -1.01786 1.40426
head -2.46135 -0.512125 1.37645
rclavicle 5.78463e-014 -1.90833e-014
rhumerus -22.9374 20.1979 -55.251
rradius 136.403
rwrist -75.3224
rhand 59.8797 -6.57298
rfingers 7.12502
rthumb 74.5742 25.4144
lclavicle 5.78463e-014 -1.90833e-014
lhumerus -13.0056 -14.1404 60.1835
lradius 139.93
lwrist 75.2572
lhand 41.161 52.1872
lfingers 7.12502
lthumb 63.3503 61.8916
rfemur -25.1021 -1.17011 13.2693
rtibia 59.1224
rfoot -30.2705 -20.8728
rtoes -15.7092
lfemur -21.4148 4.66797 -24.8997
ltibia 53.9821
lfoot -31.7616 11.5753
ltoes -14.663
718
root 0.037191 16.5796 0.198944 0.165594 -3.84562 5.46667
lowerback 10.5843 3.40395 -2.782
upperback 7.38777 4.26898 -0.0289502
thorax 1.58523 2.03954 1.13691
lowerneck 11.446 -0.38145 -5.06535
upperneck -1.56158 -1.1272 1.45935
head -2.46582 -0.565283 1.42693
rclavicle 1.55052e-014 2.38542e-015
rhumerus -23.3992 19.6 -55.4922
rradius 136.528
rwrist -75.131
rhand 59.8994 -6.30153
rfingers 7.12502
rthumb 74.5786 25.7552
lclavicle 1.55052e-014 2.38542e-015
lhumerus -13.5456 -13.2141 60.7506
lradius 140.364
lwrist 75.2635
lhand 41.8068 52.7947
lfingers 7.12502
lthumb 63.8749 61.7401
rfemur -25.1278 -1.24422 13.2802
rtibia 59.1685
rfoot -30.3113 -20.8784
rtoes -15.3926
lfemur -21.496 4.6051 -24.8819
ltibia 54.0427
lfoot -31.7288 11.5192
ltoes -14.6496
719
root 0.0358797 16.5762 0.193944 0.179091 -3.6819 5.43132
lowerback 10.6374 3.40934 -2.6894
upperback 7.48142 4.28339 -0.00308435
thorax 1.65867 2.048 1.11121
lowerneck 11.4131 -0.411729 -5.21562
upperneck -1.72515 -1.18706 1.46036
head -2.51301 -0.591211 1.45909
rclavicle 1.23246e-014 6.36111e-015
rhumerus -23.7575 19.2856 -55.6702
rradius 136.615
rwrist -74.9905
rhand 59.7648 -6.18919
rfingers 7.12502
rthumb 74.5479 25.393
lclavicle 1.23246e-014 6.36111e-015
lhumerus -14.0885 -12.5009 61.2422
lradius 140.534
lwrist 75.0733
lhand 42.1913 52.9774
lfingers 7.12502
lthumb 64.1849 61.4554
rfemur -25.1542 -1.35627 13.3328
rtibia 59.2185
rfoot -30.3121 -20.9473
rtoes -15.2989
lfemur -21.5994 4.52547 -24.8282
ltibia 54.1356
lfoot -31.6771 11.434
ltoes -14.701
720
root 0.0343336 16.5714 0.187584 0.227565 -3.47203 5.39883
lowerback 10.6826 3.38126 -2.6002
upperback 7.5254 4.25297 0.0248851
thorax 1.68544 2.03492 1.0925
lowerneck 11.425 -0.420597 -5.34851
upperneck -1.90337 -1.22201 1.40065
head -2.57446 -0.602374 1.46759
rclavicle 1.59028e-015 7.15625e-015
rhumerus -24.0265 19.1982 -55.7977
rradius 136.663
rwrist -74.802
rhand 59.5449 -6.09045
rfingers 7.12502
rthumb 74.4954 24.7206
lclavicle 1.59028e-015 7.15625e-015
lhumerus -14.5831 -11.9728 61.598
lradius 140.558
lwrist 74.7731
lhand 43.0211 52.8318
lfingers 7.12502
lthumb 64.8472 60.2609
rfemur -25.2113 -1.51453 13.3734
rtibia 59.2771
rfoot -30.3738 -20.9501
rtoes -15.2977
lfemur -21.7546 4.37605 -24.7937
ltibia 54.237
lfoot -31.6146 11.4907
ltoes -15.0869
721
root 0.0313774 16.568 0.180987 0.251313 -3.26902 5.3713
lowerback 10.7629 3.3639 -2.49898
upperback 7.54978 4.23625 0.0488004
thorax 1.67321 2.02988 1.05881
lowerneck 11.393 -0.427874 -5.52174
upperneck -2.00261 -1.25464 1.39715
head -2.60103 -0.615007 1.5002
rclavicle 4.37326e-015 5.56597e-015
rhumerus -24.2384 19.2483 -55.8421
rradius 136.635
rwrist -74.6172
rhand 59.5059 -5.98205
rfingers 7.12502
rthumb 74.4858 24.6927
lclavicle 4.37326e-015 5.56597e-015
lhumerus -14.9132 -11.6834 61.8944
lradius 140.588
lwrist 74.5437
lhand 38.5678 51.7302
lfingers 7.12502
lthumb 61.1977 64.1886
rfemur -25.2425 -1.65041 13.4199
rtibia 59.3357
rfoot -30.4246 -20.9983
rtoes -15.1079
lfemur -21.8788 4.23585 -24.7523
ltibia 54.3327
lfoot -31.6072 11.4557
ltoes -15.0999
722
root 0.026294 16.5641 0.173667 0.273534 -3.09257 5.34411
lowerback 10.827 3.38437 -2.33615
upperback 7.57268 4.27546 0.0235071
thorax 1.6741 2.05613 0.935719
lowerneck 11.3579 -0.476815 -5.47922
upperneck -2.16526 -1.31775 1.30569
head -2.64739 -0.640668 1.46744
rclavicle -5.68524e-014 2.06736e-014
rhumerus -24.4423 19.3528 -55.8688
rradius 136.57
rwrist -74.3861
rhand 59.5805 -6.15375
rfingers 7.12502
rthumb 74.5041 24.7818
lclavicle -5.68524e-014 2.06736e-014
lhumerus -14.9963 -11.8015 62.0251
lradius 140.433
lwrist 74.4845
lhand 36.5904 51.4398
lfingers 7.12502
lthumb 59.5137 65.7206
rfemur -25.293 -1.77304 13.4815
rtibia 59.4073
rfoot -30.438 -21.0681
rtoes -15.2275
lfemur -21.9891 4.17264 -24.6993
ltibia 54.4046
lfoot -31.5913 11.3416
ltoes -14.8536
723
root 0.0222395 16.5604 0.167448 0.317196 -2.93628 5.3975
lowerback 10.8244 3.38496 -2.274
upperback 7.58645 4.28244 -0.041215
thorax 1.69902 2.06331 0.8346
lowerneck 11.4299 -0.515974 -5.29525
upperneck -2.50297 -1.363 1.09628
head -2.77478 -0.65179 1.3731
rclavicle -5.68524e-014 2.3059e-014
rhumerus -24.4758 19.7185 -55.8624
rradius 136.479
rwrist -74.2687
rhand 59.4987 -6.31749
rfingers 7.12502
rthumb 74.484 24.3321
lclavicle -5.68524e-014 2.3059e-014
lhumerus -15.1247 -12.1177 61.9445
lradius 140.238
lwrist 74.4354
lhand 36.724 51.4781
lfingers 7.12502
lthumb 59.6286 65.6425
rfemur -25.3717 -1.89162 13.4366
rtibia 59.4749
rfoot -30.3724 -21.1607
rtoes -15.6473
lfemur -22.096 4.10507 -24.7432
ltibia 54.4447
lfoot -31.5765 11.2545
ltoes -14.7789
724
root 0.0186124 16.5584 0.163727 0.340744 -2.78148 5.47856
lowerback 10.8268 3.37223 -2.25484
upperback 7.58819 4.26798 -0.109649
thorax 1.70659 2.05852 0.754793
lowerneck 11.3552 -0.509141 -5.13745
upperneck -2.7048 -1.34382 0.854338
head -2.83086 -0.631502 1.26526
rclavicle 3.73715e-014 -1.11319e-014
rhumerus -24.2881 20.2573 -55.7309
rradius 136.328
rwrist -74.2256
rhand 59.3634 -6.38005
rfingers 7.12502
rthumb 74.45 23.7987
lclavicle 3.73715e-014 -1.11319e-014
lhumerus -15.313 -12.5383 61.7296
lradius 140.282
lwrist 74.2188
lhand 37.0828 51.3466
lfingers 7.12502
lthumb 59.9362 65.1937
rfemur -25.412 -2.01022 13.3544
rtibia 59.5464
rfoot -30.3789 -21.2297
rtoes -15.6624
lfemur -22.1445 4.01765 -24.8189
ltibia 54.4522
lfoot -31.5362 11.2004
ltoes -14.8513
725
root 0.0131789 16.5559 0.158242 0.349973 -2.59901 5.55919
lowerback 10.836 3.37418 -2.24076
upperback 7.58522 4.27224 -0.152977
thorax 1.70267 2.06256 0.701277
lowerneck 11.1586 -0.494189 -5.07585
upperneck -2.71057 -1.31307 0.706841
head -2.79685 -0.61129 1.20134
rclavicle 1.43125e-014 -1.98785e-014
rhumerus -24.0151 20.8708 -55.3989
rradius 136.135
rwrist -74.2289
rhand 59.3876 -6.43847
rfingers 7.12502
rthumb 74.4561 23.8243
lclavicle 1.43125e-014 -1.98785e-014
lhumerus -15.2681 -13.1243 61.5159
lradius 140.256
lwrist 74.0356
lhand 37.1838 51.2755
lfingers 7.12502
lthumb 60.0225 65.0322
rfemur -25.4395 -2.14694 13.2844
rtibia 59.6271
rfoot -30.4676 -21.2485
rtoes -15.4199
lfemur -22.192 3.9257 -24.8788
ltibia 54.4579
lfoot -31.5108 11.0878
ltoes -14.7067
726
root 0.00638553 16.5514 0.150858 0.373587 -2.40209 5.63802
lowerback 10.8096 3.3992 -2.21947
upperback 7.5831 4.3088 -0.18031
thorax 1.71733 2.08254 0.659347
lowerneck 11.008 -0.507574 -5.06132
upperneck -2.73745 -1.32353 0.659077
head -2.77732 -0.614457 1.18201
rclavicle 1.59028e-015 -1.66979e-014
rhumerus -23.6816 21.5718 -54.8932
rradius 135.949
rwrist -74.3051
rhand 59.4844 -6.58702
rfingers 7.12502
rthumb 74.4805 24.0128
lclavicle 1.59028e-015 -1.66979e-014
lhumerus -15.0845 -13.9607 61.2796
lradius 140.043
lwrist 73.9357
lhand 36.7871 51.3203
lfingers 7.12502
lthumb 59.6827 65.4294
rfemur -25.4994 -2.29373 13.2205
rtibia 59.7156
rfoot -30.5456 -21.2472
rtoes -15.2328
lfemur -22.2709 3.81185 -24.9366
ltibia 54.475
lfoot -31.4687 11.0009
ltoes -14.7274
727
root -0.000142613 16.547 0.142316 0.327434 -2.15875 5.63588
lowerback 10.8942 3.40668 -2.08586
upperback 7.56645 4.32775 -0.200111
thorax 1.6643 2.09838 0.557327
lowerneck 10.8699 -0.521532 -5.05193
upperneck -2.76151 -1.33146 0.692843
head -2.75919 -0.619514 1.19043
rclavicle -2.98177e-014 7.15625e-015
rhumerus -23.3099 22.3683 -54.3429
rradius 135.795
rwrist -74.3511
rhand 59.5772 -6.80301
rfingers 7.12502
rthumb 74.5033 24.1209
lclavicle -2.98177e-014 7.15625e-015
lhumerus -14.6916 -14.9927 60.9576
lradius 139.731
lwrist 73.7307
lhand 36.2218 50.9817
lfingers 7.12502
lthumb 59.1963 65.5789
rfemur -25.4563 -2.45252 13.2471
rtibia 59.7924
rfoot -30.6128 -21.3204
rtoes -15.1178
lfemur -22.2906 3.68975 -24.9004
ltibia 54.523
lfoot -31.3663 10.9016
ltoes -14.7896
728
root -0.00695528 16.5421 0.134923 0.25428 -1.90698 5.60639
lowerback 11.028 3.39853 -1.91906
upperback 7.51593 4.32717 -0.215691
thorax 1.55163 2.10604 0.438825
lowerneck 10.6902 -0.519827 -5.06056
upperneck -2.6808 -1.31767 0.721731
head -2.69815 -0.615132 1.1975
rclavicle 5.40694e-014 -1.74931e-014
rhumerus -22.8977 23.3158 -53.7617
rradius 135.638
rwrist -74.2613
rhand 59.5239 -6.71657
rfingers 7.12502
rthumb 74.4902 24.0211
lclavicle 5.40694e-014 -1.74931e-014
lhumerus -14.073 -16.2055 60.5296
lradius 139.279
lwrist 73.4148
lhand 38.0747 51.2472
lfingers 7.12502
lthumb 60.7809 64.1807
rfemur -25.376 -2.6239 13.3024
rtibia 59.8736
rfoot -30.6848 -21.3861
rtoes -15.0719
lfemur -22.2838 3.59025 -24.8277
ltibia 54.5854
lfoot -31.3081 10.7685
ltoes -14.8564
